# Blender 3.3.1
# www.blender.org
mtllib DeadTree.mtl
o Circle_Circle.001
v -0.000009 0.009464 -1.070461
v -0.500000 0.000000 -0.866025
v -0.835174 -0.003971 -0.478411
v -1.046090 0.003081 -0.000513
v -0.866025 -0.000000 0.500000
v -0.459398 -0.000486 0.796631
v 0.000000 -0.000000 1.000000
v 0.510238 0.000080 0.882981
v 0.866025 -0.000000 0.500000
v 1.000000 0.000000 0.000000
v 0.928943 0.007280 -0.537139
v 0.500001 0.000000 -0.866025
v 0.003897 4.683599 -0.387893
v -0.343377 4.682516 -0.277971
v -0.597565 4.682516 -0.023783
v -0.752081 4.684944 0.324097
v -0.597565 4.682516 0.670671
v -0.343377 4.682516 0.924859
v 0.003919 4.683830 1.044234
v 0.307519 4.677584 0.851922
v 0.605265 4.682516 0.670671
v 0.698305 4.682516 0.323444
v 0.605266 4.682516 -0.023783
v 0.351078 4.682516 -0.277971
v -0.171732 10.116347 -0.448977
v -0.430935 10.112917 -0.453257
v -0.574149 10.115514 -0.232355
v -0.554679 10.117379 -0.001684
v -0.560561 10.116347 0.224493
v -0.396223 10.116347 0.388831
v -0.171733 10.116347 0.448983
v 0.044165 10.112879 0.374537
v 0.217096 10.116347 0.224493
v 0.216763 10.105411 -0.000199
v 0.217096 10.116347 -0.224487
v 0.052758 10.116347 -0.388825
v -0.827858 13.886761 -0.462057
v 2.701566 5.307384 -0.580458
v 2.540326 5.598487 -0.410127
v 2.471599 5.721115 -0.083248
v 2.522907 5.623901 0.269984
v 2.696764 5.317047 0.464305
v 2.838862 5.022579 0.256026
v 2.907589 4.899950 -0.070853
v 2.848618 5.017836 -0.401362
v 0.254270 4.390050 -0.346621
v 0.129964 4.799317 -0.217455
v 0.051931 5.019099 0.198738
v 0.103975 4.842248 0.660980
v 0.241876 4.406350 0.857525
v 0.384855 3.966750 0.673238
v 0.478308 3.717677 0.218960
v 0.397113 3.957810 -0.246170
v 4.133647 6.907843 0.056110
v -0.288809 6.104635 -0.045502
v 0.027859 6.227264 -0.151778
v 0.259711 6.516961 -0.111832
v 0.203453 6.829907 0.115838
v -0.091318 6.871648 0.310562
v -0.395370 6.803173 0.442999
v -0.588077 6.511864 0.375069
v -0.475173 6.272519 0.174638
v -1.253731 7.433887 -1.714276
v -1.027931 7.529855 -1.778353
v -0.828983 7.733026 -1.796646
v -0.907735 7.950042 -1.596105
v -1.101416 8.029180 -1.437187
v -1.293597 7.893100 -1.423941
v -1.555935 7.728658 -1.372426
v -1.438683 7.519347 -1.556075
v -1.929380 9.479349 -2.498507
v 0.566074 5.526184 0.328411
v 0.461166 5.151191 0.519191
v 0.186753 4.848298 0.565067
v -0.205018 4.798722 0.372201
v -0.439669 5.029937 0.081309
v -0.379745 5.406498 -0.137209
v -0.060349 5.707823 -0.155347
v 0.331423 5.757398 0.037519
v -1.103461 7.295225 2.634437
v -1.211382 7.067520 2.732293
v -1.348558 6.825277 2.820310
v -1.654459 6.777030 2.700370
v -1.764272 6.969172 2.472082
v -1.724900 7.216587 2.328507
v -1.504649 7.382260 2.343987
v -1.257636 7.447141 2.443310
v -1.600739 9.134666 4.502790
v -0.572235 6.158145 1.385175
v -0.707649 5.851519 1.490760
v -0.887524 5.604065 1.573890
v -1.211099 5.555430 1.421456
v -1.337330 5.777298 1.195031
v -1.277291 6.039120 1.057553
v -1.093767 6.315011 0.978557
v -0.773052 6.336556 1.148894
v -0.193126 9.181345 -0.152274
v -0.243904 9.398770 0.071412
v 0.055224 9.399654 0.272338
v 0.249444 9.181345 0.152278
v 0.207497 9.031051 -0.049817
v 0.015421 8.989041 -0.260279
v 0.698485 10.728465 -1.160964
v -0.087679 7.758309 0.608668
v 0.168497 7.547512 0.492891
v 0.360740 7.605207 0.232218
v 0.309070 7.874660 0.063368
v 0.084056 8.092353 0.137155
v -0.113634 8.043672 0.399792
v 1.813489 8.894043 1.965717
v 1.342473 4.642962 0.196108
v 1.586670 4.656827 -0.027220
v 1.756555 4.879387 -0.105517
v 1.719255 5.140654 0.016439
v 1.511605 5.149008 0.196228
v 1.342186 4.956799 0.294988
v 3.024043 4.187434 1.653346
v 1.222005 5.018846 -0.292757
v 1.181942 5.136537 -0.065823
v 1.235471 5.246898 0.214173
v 1.517751 5.089938 0.202802
v 1.632560 4.933744 -0.013872
v 1.484687 4.898199 -0.261651
v 2.132153 6.943836 -0.905381
v -0.963818 6.016052 1.322829
v -1.124069 6.143620 1.378954
v -0.939948 6.126472 1.517017
v -0.776828 6.068864 1.604248
v -0.690812 5.951843 1.441913
v -0.798338 5.924016 1.251369
v -0.476146 7.762400 1.009880
v -1.227228 5.936793 1.772492
v -1.031349 6.034932 1.716888
v -0.854934 6.229940 1.682692
v -1.058225 6.412494 1.744839
v -1.297594 6.367118 1.812280
v -1.382095 6.129268 1.826107
v -0.509428 5.948876 3.611331
v -1.519599 6.485003 1.872957
v -1.436005 6.554133 2.041509
v -1.321193 6.610476 1.928983
v -1.187792 6.708473 1.873891
v -1.267995 6.637107 1.722022
v -1.429351 6.533235 1.692820
v -2.271415 7.821762 1.875354
v -1.137439 7.309078 -0.929447
v -1.020630 7.390520 -0.839706
v -0.902293 7.481757 -0.760882
v -0.815200 7.527090 -0.928816
v -0.889226 7.463416 -1.097066
v -1.050346 7.354410 -1.097381
v -1.890090 8.628548 -0.927459
v -0.540530 7.250770 -0.563526
v -0.329681 7.213616 -0.571535
v -0.308487 7.024777 -0.720437
v -0.513324 6.993383 -0.750988
v -0.722704 7.023354 -0.777589
v -0.743897 7.212193 -0.628687
v -0.205339 8.388215 -2.078053
v 0.121072 9.317457 0.298180
v -0.023787 9.500728 0.123994
v -0.271070 9.417017 0.057139
v -0.382023 9.206237 0.127897
v -0.262006 9.046004 0.275094
v 0.000614 9.039571 0.418038
v -0.771267 10.286695 1.723480
v -0.459057 8.338128 0.283965
v -0.300156 8.516045 0.145319
v -0.215038 8.471983 -0.123740
v -0.306528 8.225877 -0.234340
v -0.470592 8.039299 -0.102614
v -0.580474 8.072247 0.186857
v -2.091644 9.425575 -0.607144
v 1.095640 4.586932 -0.110679
v 1.137755 4.788383 -0.266685
v 1.254883 4.990967 -0.312852
v 1.432755 5.060695 -0.110421
v 1.440341 4.876764 0.114605
v 1.271784 4.639882 0.114476
v 2.785264 3.598036 -1.260167
vn 0.5218 0.0546 0.8513
vn -0.0858 0.0001 0.9963
vn 0.5001 0.0171 0.8658
vn -0.8056 0.0215 0.5921
vn -0.9988 0.0467 0.0134
vn -0.9965 0.0662 -0.0519
vn 0.5221 0.0717 -0.8499
vn 0.8550 0.1095 -0.5070
vn 0.4901 0.1270 -0.8624
vn -0.5749 0.1240 -0.8088
vn 0.0029 0.0626 -0.9980
vn -0.0002 0.1445 -0.9895
vn 0.7957 0.0699 0.6017
vn 0.8789 0.0316 0.4759
vn -0.5052 -0.0053 0.8630
vn -0.8177 0.0350 0.5745
vn -0.8370 0.0975 -0.5384
vn -0.5217 0.0489 -0.8517
vn 0.9973 0.0732 0.0089
vn 0.9964 0.0655 0.0543
vn -0.5245 0.0371 0.8506
vn -0.8281 0.0446 -0.5588
vn 0.8706 0.0783 -0.4857
vn -0.4872 0.1112 0.8662
vn 0.5096 0.0582 -0.8584
vn -0.9687 -0.0464 -0.2439
vn 0.8907 0.2072 0.4047
vn 0.0456 0.1748 0.9836
vn 0.1177 0.0483 0.9919
vn -0.9994 -0.0244 0.0227
vn 0.9853 0.1708 -0.0034
vn 0.4941 0.2013 0.8458
vn -0.9209 0.0320 0.3884
vn 0.9199 0.1409 -0.3660
vn 0.1408 0.0028 -0.9900
vn -0.1660 0.9795 -0.1144
vn -0.4569 -0.0425 -0.8885
vn 0.5615 -0.5643 0.6053
vn 0.4336 -0.8999 0.0455
vn 0.6557 -0.7550 -0.0088
vn 0.2279 0.0057 0.9737
vn -0.1204 0.6939 0.7100
vn 0.1406 0.0479 0.9889
vn -0.4405 0.8943 -0.0785
vn -0.2486 0.5890 -0.7690
vn -0.2887 0.9568 -0.0350
vn 0.2144 -0.5886 -0.7795
vn 0.5054 -0.5723 -0.6457
vn 0.3546 -0.5586 0.7498
vn -0.2752 0.7101 0.6481
vn -0.2911 0.6283 -0.7214
vn -0.0641 0.0057 -0.9979
vn 0.1383 -0.0130 -0.9903
vn 0.6806 0.7307 0.0527
vn 0.1881 -0.5137 -0.8371
vn 0.8225 -0.0269 -0.5682
vn 0.3529 -0.6077 -0.7114
vn -0.7992 -0.6010 -0.0052
vn -0.3379 -0.6732 -0.6578
vn -0.3761 -0.8184 -0.4344
vn 0.1825 0.8830 0.4324
vn -0.2839 0.6027 0.7458
vn -0.3830 0.6782 0.6272
vn 0.7085 0.0024 -0.7057
vn 0.7051 0.7088 0.0210
vn -0.9037 -0.1214 0.4107
vn -0.7839 -0.5660 -0.2554
vn -0.9095 0.0723 0.4093
vn 0.7645 0.6434 0.0405
vn 0.4374 0.8507 -0.2916
vn 0.9704 0.1918 0.1468
vn 0.8525 0.3566 0.3823
vn 0.7021 -0.1906 0.6860
vn 0.3308 -0.5584 0.7608
vn 0.2401 -0.6494 0.7216
vn -0.6497 -0.5633 0.5105
vn -0.9116 -0.3128 -0.2668
vn -0.5870 -0.7602 0.2785
vn -0.2190 0.7416 -0.6341
vn -0.3655 0.6623 -0.6540
vn 0.8285 -0.2315 0.5099
vn -0.9896 -0.1435 -0.0090
vn -0.8325 0.1112 -0.5427
vn -0.8243 0.3755 -0.4238
vn -0.3609 0.8241 -0.4367
vn 0.1454 0.7556 0.6387
vn 0.3908 0.9155 -0.0951
vn 0.7190 0.5155 0.4662
vn 0.2534 -0.6042 0.7555
vn 0.6278 -0.0764 0.7746
vn -0.8018 -0.4960 -0.3333
vn -0.3928 -0.8810 0.2638
vn -0.1788 0.7959 -0.5784
vn -0.7136 0.1836 -0.6760
vn -0.0579 0.7184 0.6933
vn 0.4654 0.7367 -0.4905
vn 0.8656 -0.4244 -0.2658
vn 0.3402 0.7438 -0.5754
vn 0.9438 0.0066 0.3305
vn 0.2508 0.6512 0.7163
vn -0.7796 0.6218 0.0747
vn 0.1004 -0.4883 -0.8669
vn -0.7620 0.0170 -0.6474
vn 0.0357 0.9024 -0.4294
vn 0.6549 0.4154 0.6313
vn 0.6777 0.2735 -0.6825
vn 0.7833 -0.5791 -0.2259
vn 0.1954 -0.8227 0.5339
vn -0.5721 0.7684 0.2868
vn -0.5285 -0.1195 0.8405
vn 0.0016 0.8354 0.5496
vn 0.6558 -0.3112 0.6878
vn 0.6515 0.7544 -0.0800
vn 0.7785 -0.1332 -0.6134
vn 0.2260 -0.8708 -0.4365
vn -0.5359 0.2515 0.8060
vn -0.5244 -0.7695 0.3645
vn 0.9730 -0.2291 0.0286
vn 0.3387 0.8539 -0.3952
vn 0.6483 0.2207 0.7287
vn -0.4152 0.6436 0.6429
vn -0.9026 0.3958 -0.1696
vn 0.4776 -0.3977 -0.7834
vn -0.5615 0.0021 -0.8275
vn 0.9905 -0.1290 -0.0484
vn 0.2195 0.9487 -0.2276
vn 0.4937 0.2086 0.8442
vn -0.4296 0.3763 0.8209
vn -0.8980 0.2825 -0.3373
vn 0.3580 -0.1830 -0.9156
vn -0.3991 -0.0526 -0.9154
vn -0.5386 0.7375 0.4074
vn 0.3200 -0.1224 0.9395
vn 0.2932 0.9445 0.1484
vn 0.9825 0.0901 -0.1629
vn 0.5656 -0.8019 -0.1923
vn -0.8929 -0.1617 0.4202
vn -0.2149 -0.9724 0.0903
vn 0.3522 0.4074 -0.8426
vn -0.5875 0.8090 0.0188
vn 0.6912 0.6724 0.2649
vn 0.3714 0.3298 0.8679
vn -0.1554 0.0270 0.9875
vn -0.3993 -0.1324 -0.9072
vn -0.8716 -0.4902 0.0025
vn 0.3231 0.4022 -0.8566
vn -0.6083 0.7936 0.0142
vn 0.7154 0.6981 -0.0297
vn 0.1756 0.2880 0.9414
vn -0.4383 -0.2466 0.8644
vn -0.4489 -0.1791 -0.8754
vn -0.8497 -0.4850 0.2069
vn -0.6338 -0.3940 -0.6657
vn 0.1666 0.6582 -0.7341
vn 0.0971 -0.6972 -0.7103
vn 0.7755 -0.4740 -0.4171
vn 0.7312 0.5074 0.4559
vn -0.8250 0.5480 0.1381
vn -0.0920 0.8059 0.5849
vn -0.6274 -0.6865 0.3675
vn -0.3354 0.5339 0.7762
vn -0.9798 -0.1337 -0.1485
vn -0.5814 0.6366 -0.5067
vn 0.3579 0.8933 -0.2717
vn 0.2978 -0.5962 0.7456
vn 0.8873 0.2921 0.3569
vn -0.4251 -0.7041 -0.5689
vn -0.7912 0.5351 -0.2960
vn 0.1127 -0.1381 -0.9840
vn 0.4858 0.6737 -0.5568
vn 0.2517 0.8612 0.4416
vn -0.7178 -0.5545 0.4211
vn -0.3028 0.2895 0.9080
vn 0.7457 0.0723 0.6623
vn 0.6648 -0.5397 -0.5166
vn 0.6904 0.7165 -0.0993
vn -0.0587 0.5165 -0.8543
vn -0.5878 -0.1500 -0.7950
vn 0.1589 -0.6947 0.7015
vn -0.5689 -0.8106 -0.1388
vt -1.447833 -1.963463
vt -1.262334 -1.974780
vt -1.085515 -1.974779
vt -0.904494 -1.966676
vt -0.719715 -1.953592
vt -0.543938 -1.938140
vt -0.367403 -1.922862
vt -0.184438 -1.908896
vt -0.000170 -1.892192
vt 0.180385 -1.872847
vt -1.998507 -1.857130
vt -1.815917 -1.903489
vt -1.632077 -1.939045
vt -1.287161 -0.290629
vt -1.156494 -0.298067
vt -1.028113 -0.302413
vt -0.892276 -0.304601
vt -0.758370 -0.303350
vt -0.632059 -0.299435
vt -0.503433 -0.292940
vt -0.378146 -0.283758
vt -0.256870 -0.270686
vt -1.670801 -0.242506
vt -0.130989 -0.252549
vt -1.545940 -0.263136
vt -1.417673 -0.279041
vt -1.132557 1.618309
vt -1.043145 1.614113
vt -0.952329 1.608064
vt -0.872546 1.600455
vt -0.794733 1.592555
vt -0.714906 1.586300
vt -0.634965 1.584786
vt -0.556076 1.590343
vt -0.478045 1.604365
vt -0.403044 1.626584
vt -1.370716 1.636852
vt -1.292897 1.626826
vt -1.212618 1.621329
vt -0.875957 2.926369
vt 1.123164 0.700261
vt 1.167190 0.586878
vt 1.218197 0.466949
vt 1.241647 1.388359
vt 1.176791 1.266207
vt 1.120797 1.140273
vt 1.086765 1.020684
vt 1.078653 0.912510
vt 1.092035 0.807191
vt 0.254484 0.545006
vt 0.291043 0.384609
vt 0.317655 0.210419
vt 0.339395 1.664494
vt 0.269628 1.498496
vt 0.214080 1.319474
vt 0.183371 1.134884
vt 0.183371 0.931147
vt 0.215746 0.722966
vt 1.879003 0.910899
vt 1.975385 -1.963224
vt 1.840968 -1.935812
vt 1.707475 -1.893030
vt 1.566888 -1.839586
vt 2.482171 -1.967086
vt 1.449443 -1.789781
vt 2.358125 -1.972888
vt 2.227109 -1.974780
vt 2.102947 -1.974780
vt 2.089100 -1.190347
vt 2.011195 -1.169715
vt 1.930943 -1.126095
vt 1.849612 -1.066012
vt 2.454259 -1.120861
vt 1.773519 -1.009701
vt 2.370573 -1.140034
vt 2.266527 -1.166963
vt 2.170959 -1.187917
vt 2.219881 -0.402832
vt 1.305926 -1.953095
vt 1.157822 -1.974780
vt 1.007276 -1.974780
vt 0.845224 -1.958452
vt 0.674046 -1.946745
vt 0.508611 -1.944937
vt 0.345881 -1.950308
vt 0.183371 -1.952173
vt 1.446457 -1.896287
vt 1.040528 -0.701554
vt 0.958666 -0.744233
vt 0.871940 -0.790558
vt 0.769908 -0.822347
vt 0.666906 -0.826256
vt 0.575944 -0.803765
vt 0.493277 -0.763803
vt 1.141235 -0.672931
vt 0.407212 -0.721145
vt 0.708015 0.207433
vt 1.152282 -1.342659
vt 1.026459 -1.376263
vt 0.914765 -1.390429
vt 0.792071 -1.395328
vt 0.680259 -1.390499
vt 0.580901 -1.381650
vt 0.464469 -1.368921
vt 1.279541 -1.305315
vt 0.336092 -1.353602
vt 1.439793 2.282944
vt 1.547674 2.257791
vt 1.672948 2.241722
vt 1.112179 2.509349
vt 1.182728 2.424011
vt 1.250500 2.365568
vt 1.339007 2.317019
vt 1.672892 2.962916
vt 0.313402 2.109564
vt 0.264566 1.996504
vt 0.223976 1.888572
vt 0.193947 1.779723
vt 0.183371 1.667480
vt 0.443706 2.311120
vt 0.372727 2.218773
vt 1.109193 1.667480
vt 1.802935 1.843014
vt 1.849761 1.949239
vt 1.885814 2.044548
vt 1.912643 2.142854
vt 1.921765 2.238736
vt 1.685848 1.667480
vt 1.745519 1.742993
vt 1.112179 2.238736
vt 2.238243 0.237721
vt 2.327693 0.222753
vt 2.434122 0.210419
vt 1.881989 0.439972
vt 1.961819 0.359607
vt 2.045265 0.301123
vt 2.139167 0.261548
vt 2.434122 0.989202
vt 2.715001 0.235270
vt 2.779089 0.273134
vt 2.853133 0.305687
vt 2.437108 0.262997
vt 2.498988 0.235033
vt 2.571257 0.210419
vt 2.648560 0.210419
vt 2.585331 0.867003
vt 0.823398 2.538778
vt 0.846878 2.614442
vt 0.870302 2.704387
vt 0.687101 2.314106
vt 0.884357 2.801588
vt 0.746730 2.379642
vt 0.791433 2.456142
vt 0.183371 2.801587
vt 2.428916 2.654320
vt 2.446750 2.722273
vt 2.461265 2.780188
vt 2.329603 2.476650
vt 2.469283 2.840806
vt 2.371968 2.526191
vt 2.404544 2.585919
vt 1.924751 2.840806
vt 2.959433 1.844502
vt 2.975262 1.901334
vt 2.988507 1.959047
vt 2.861685 1.667480
vt 2.998507 2.026491
vt 2.905478 1.719740
vt 2.937449 1.779962
vt 2.459084 2.026491
vt 2.204394 0.029087
vt 2.358441 -0.399846
vt 2.211782 -0.045642
vt 2.222142 -0.129620
vt 2.235398 -0.201833
vt 2.262769 -0.271357
vt 2.308197 -0.342744
vt 2.878581 0.029086
vt 2.554582 1.403928
vt 2.323422 0.992188
vt 2.559349 1.505952
vt 2.393614 1.055393
vt 2.452502 1.119562
vt 2.499099 1.193142
vt 2.535857 1.291308
vt 1.881989 1.505951
vt 2.038320 0.072886
vt 2.201408 -0.399846
vt 1.970759 0.142078
vt 2.199791 -0.299749
vt 2.188121 -0.200574
vt 2.159374 -0.106296
vt 2.106454 -0.010850
vt 1.449443 -0.399846
vt 2.190566 1.723559
vt 2.278210 1.700931
vt 2.359598 1.681828
vt 1.924751 1.867361
vt 2.456098 1.667480
vt 2.003417 1.802588
vt 2.093828 1.755583
vt 2.456098 2.473664
s 1
usemtl Material.001
f 20/21/1 7/7/2 8/8/3
f 5/5/4 16/17/5 4/4/6
f 24/26/7 11/12/8 12/13/9
f 2/2/10 13/14/11 1/1/12
f 21/22/13 8/8/3 9/9/14
f 6/6/15 17/18/16 5/5/4
f 13/14/11 12/13/9 1/1/12
f 3/3/17 14/15/18 2/2/10
f 22/24/19 9/9/14 10/10/20
f 7/7/2 18/19/21 6/6/15
f 4/4/6 15/16/22 3/3/17
f 23/25/23 10/11/20 11/12/8
f 30/32/24 17/18/16 18/19/21
f 13/14/11 36/39/25 24/26/7
f 27/29/26 14/15/18 15/16/22
f 22/24/19 33/35/27 21/22/13
f 31/33/28 18/19/21 19/20/29
f 28/30/30 15/16/22 16/17/5
f 23/25/23 34/37/31 22/23/19
f 32/34/32 19/20/29 20/21/1
f 29/31/33 16/17/5 17/18/16
f 24/26/7 35/38/34 23/25/23
f 14/15/18 25/27/35 13/14/11
f 21/22/13 32/34/32 20/21/1
f 30/32/24 37/40/36 29/31/33
f 25/27/35 37/40/36 36/39/25
f 27/29/26 37/40/36 26/28/37
f 34/36/31 37/40/36 33/35/27
f 31/33/28 37/40/36 30/32/24
f 28/30/30 37/40/36 27/29/26
f 35/38/34 37/40/36 34/37/31
f 32/34/32 37/40/36 31/33/28
f 29/31/33 37/40/36 28/30/30
f 36/39/25 37/40/36 35/38/34
f 26/28/37 37/40/36 25/27/35
f 33/35/27 37/40/36 32/34/32
f 43/47/38 52/57/39 44/48/40
f 42/46/41 49/54/42 50/55/43
f 40/43/44 47/51/45 48/52/46
f 44/48/40 53/58/47 45/49/48
f 42/46/41 51/56/49 43/47/38
f 41/45/50 48/53/46 49/54/42
f 39/42/51 46/50/52 47/51/45
f 45/49/48 46/50/52 38/41/53
f 43/47/38 44/48/40 54/59/54
f 41/45/50 42/46/41 54/59/54
f 39/42/51 40/43/44 54/59/54
f 44/48/40 45/49/48 54/59/54
f 42/46/41 43/47/38 54/59/54
f 40/44/44 41/45/50 54/59/54
f 38/41/53 39/42/51 54/59/54
f 45/49/48 38/41/53 54/59/54
f 64/70/55 57/62/56 56/61/57
f 62/68/58 63/69/59 55/60/60
f 59/64/61 68/75/62 60/66/63
f 65/71/64 58/63/65 57/62/56
f 63/69/59 56/61/57 55/60/60
f 61/67/66 70/77/67 62/68/58
f 60/66/63 69/76/68 61/67/66
f 66/72/69 59/65/61 58/63/65
f 96/105/70 80/88/71 89/98/72
f 90/99/73 82/90/74 91/100/75
f 83/91/76 93/102/77 92/101/78
f 86/94/79 96/106/70 95/104/80
f 89/98/72 81/89/81 90/99/73
f 91/100/75 83/91/76 92/101/78
f 84/92/82 94/103/83 93/102/77
f 85/93/84 95/104/80 94/103/83
f 68/75/62 71/78/85 69/76/68
f 66/72/69 71/78/85 67/74/86
f 64/70/55 71/78/85 65/71/64
f 70/77/67 71/78/85 63/69/59
f 67/73/86 71/78/85 68/75/62
f 65/71/64 71/78/85 66/72/69
f 63/69/59 71/78/85 64/70/55
f 69/76/68 71/78/85 70/77/67
f 79/87/87 89/98/72 72/79/88
f 90/99/73 74/81/89 73/80/90
f 92/101/78 76/83/91 75/82/92
f 78/85/93 96/106/70 79/86/87
f 89/98/72 73/80/90 72/79/88
f 91/100/75 75/82/92 74/81/89
f 76/83/91 94/103/83 77/84/94
f 77/84/94 95/104/80 78/85/93
f 80/88/71 88/97/95 81/89/81
f 82/90/74 88/97/95 83/91/76
f 84/92/82 88/97/95 85/93/84
f 87/95/96 88/97/95 80/88/71
f 81/89/81 88/97/95 82/90/74
f 85/93/84 88/97/95 86/94/79
f 83/91/76 88/97/95 84/92/82
f 86/94/79 88/97/95 87/96/96
f 101/112/97 103/114/98 100/111/99
f 99/109/100 103/114/98 98/108/101
f 102/113/102 103/114/98 101/112/97
f 100/111/99 103/114/98 99/110/100
f 98/108/101 103/114/98 97/107/103
f 97/107/103 103/114/98 102/113/102
f 108/119/104 110/122/105 107/118/106
f 106/117/107 110/122/105 105/116/108
f 109/121/109 110/122/105 108/120/104
f 107/118/106 110/122/105 106/117/107
f 105/116/108 110/122/105 104/115/110
f 104/115/110 110/122/105 109/121/109
f 115/127/111 117/130/112 114/126/113
f 113/125/114 117/130/112 112/124/115
f 116/129/116 117/130/112 115/128/111
f 114/126/113 117/130/112 113/125/114
f 112/124/115 117/130/112 111/123/117
f 111/123/117 117/130/112 116/129/116
f 122/136/118 124/138/119 121/135/120
f 120/133/121 124/138/119 119/132/122
f 123/137/123 124/138/119 122/136/118
f 121/135/120 124/138/119 120/134/121
f 119/132/122 124/138/119 118/131/124
f 118/131/124 124/138/119 123/137/123
f 129/144/125 131/146/126 128/143/127
f 127/141/128 131/146/126 126/140/129
f 130/145/130 131/146/126 129/144/125
f 128/143/127 131/146/126 127/142/128
f 126/140/129 131/146/126 125/139/131
f 125/139/131 131/146/126 130/145/130
f 136/152/132 138/154/133 135/150/134
f 134/149/135 138/154/133 133/148/136
f 137/153/137 138/154/133 136/152/132
f 135/151/134 138/154/133 134/149/135
f 133/148/136 138/154/133 132/147/138
f 132/147/138 138/154/133 137/153/137
f 143/160/139 145/162/140 142/158/141
f 141/157/142 145/162/140 140/156/143
f 144/161/144 145/162/140 143/160/139
f 142/159/141 145/162/140 141/157/142
f 140/156/143 145/162/140 139/155/145
f 139/155/145 145/162/140 144/161/144
f 150/168/146 152/170/147 149/166/148
f 148/165/149 152/170/147 147/164/150
f 151/169/151 152/170/147 150/168/146
f 149/167/148 152/170/147 148/165/149
f 147/164/150 152/170/147 146/163/152
f 146/163/152 152/170/147 151/169/151
f 157/176/153 159/178/154 156/175/155
f 155/174/156 159/178/154 154/173/157
f 158/177/158 159/178/154 157/176/153
f 156/175/155 159/178/154 155/174/156
f 154/173/157 159/178/154 153/171/159
f 153/172/159 159/178/154 158/177/158
f 164/184/160 166/186/161 163/183/162
f 162/182/163 166/186/161 161/180/164
f 165/185/165 166/186/161 164/184/160
f 163/183/162 166/186/161 162/182/163
f 161/181/164 166/186/161 160/179/166
f 160/179/166 166/186/161 165/185/165
f 171/192/167 173/194/168 170/191/169
f 169/190/170 173/194/168 168/188/171
f 172/193/172 173/194/168 171/192/167
f 170/191/169 173/194/168 169/190/170
f 168/189/171 173/194/168 167/187/173
f 167/187/173 173/194/168 172/193/172
f 178/200/174 180/202/175 177/198/176
f 176/197/177 180/202/175 175/196/178
f 179/201/179 180/202/175 178/200/174
f 177/199/176 180/202/175 176/197/177
f 175/196/178 180/202/175 174/195/180
f 174/195/180 180/202/175 179/201/179
f 20/21/1 19/20/29 7/7/2
f 5/5/4 17/18/16 16/17/5
f 24/26/7 23/25/23 11/12/8
f 2/2/10 14/15/18 13/14/11
f 21/22/13 20/21/1 8/8/3
f 6/6/15 18/19/21 17/18/16
f 13/14/11 24/26/7 12/13/9
f 3/3/17 15/16/22 14/15/18
f 22/24/19 21/22/13 9/9/14
f 7/7/2 19/20/29 18/19/21
f 4/4/6 16/17/5 15/16/22
f 23/25/23 22/23/19 10/11/20
f 30/32/24 29/31/33 17/18/16
f 13/14/11 25/27/35 36/39/25
f 27/29/26 26/28/37 14/15/18
f 22/24/19 34/36/31 33/35/27
f 31/33/28 30/32/24 18/19/21
f 28/30/30 27/29/26 15/16/22
f 23/25/23 35/38/34 34/37/31
f 32/34/32 31/33/28 19/20/29
f 29/31/33 28/30/30 16/17/5
f 24/26/7 36/39/25 35/38/34
f 14/15/18 26/28/37 25/27/35
f 21/22/13 33/35/27 32/34/32
f 43/47/38 51/56/49 52/57/39
f 42/46/41 41/45/50 49/54/42
f 40/43/44 39/42/51 47/51/45
f 44/48/40 52/57/39 53/58/47
f 42/46/41 50/55/43 51/56/49
f 41/45/50 40/44/44 48/53/46
f 39/42/51 38/41/53 46/50/52
f 45/49/48 53/58/47 46/50/52
f 64/70/55 65/71/64 57/62/56
f 62/68/58 70/77/67 63/69/59
f 59/64/61 67/73/86 68/75/62
f 65/71/64 66/72/69 58/63/65
f 63/69/59 64/70/55 56/61/57
f 61/67/66 69/76/68 70/77/67
f 60/66/63 68/75/62 69/76/68
f 66/72/69 67/74/86 59/65/61
f 96/105/70 87/95/96 80/88/71
f 90/99/73 81/89/81 82/90/74
f 83/91/76 84/92/82 93/102/77
f 86/94/79 87/96/96 96/106/70
f 89/98/72 80/88/71 81/89/81
f 91/100/75 82/90/74 83/91/76
f 84/92/82 85/93/84 94/103/83
f 85/93/84 86/94/79 95/104/80
f 79/87/87 96/105/70 89/98/72
f 90/99/73 91/100/75 74/81/89
f 92/101/78 93/102/77 76/83/91
f 78/85/93 95/104/80 96/106/70
f 89/98/72 90/99/73 73/80/90
f 91/100/75 92/101/78 75/82/92
f 76/83/91 93/102/77 94/103/83
f 77/84/94 94/103/83 95/104/80
